<svg width="147" height="26" viewBox="0 0 147 26" fill="none" xmlns="http://www.w3.org/2000/svg">
<path d="M1.71 19C1.59 19 1.482 18.958 1.386 18.874C1.302 18.778 1.26 18.67 1.26 18.55V6.85C1.26 6.718 1.302 6.61 1.386 6.526C1.482 6.442 1.59 6.4 1.71 6.4H3.978C4.11 6.4 4.218 6.442 4.302 6.526C4.386 6.61 4.428 6.718 4.428 6.85V10.846L7.758 6.742C7.902 6.514 8.136 6.4 8.46 6.4H11.052C11.16 6.4 11.25 6.442 11.322 6.526C11.394 6.598 11.43 6.682 11.43 6.778C11.43 6.862 11.412 6.934 11.376 6.994L7.056 12.43L11.7 18.406C11.748 18.454 11.772 18.526 11.772 18.622C11.772 18.718 11.736 18.808 11.664 18.892C11.592 18.964 11.502 19 11.394 19H8.712C8.424 19 8.184 18.88 7.992 18.64L4.428 14.194V18.55C4.428 18.682 4.386 18.79 4.302 18.874C4.218 18.958 4.11 19 3.978 19H1.71ZM15.6825 19.18C15.0465 19.18 14.4645 19.06 13.9365 18.82C13.4205 18.568 13.0125 18.232 12.7125 17.812C12.4245 17.38 12.2805 16.906 12.2805 16.39C12.2805 15.562 12.6165 14.896 13.2885 14.392C13.9725 13.888 14.9085 13.54 16.0965 13.348L18.3465 13.006V12.754C18.3465 12.298 18.2505 11.962 18.0585 11.746C17.8665 11.53 17.5425 11.422 17.0865 11.422C16.8105 11.422 16.5825 11.47 16.4025 11.566C16.2225 11.662 16.0365 11.794 15.8445 11.962C15.6765 12.106 15.5505 12.202 15.4665 12.25C15.4305 12.346 15.3645 12.394 15.2685 12.394H13.3065C13.1865 12.394 13.0845 12.358 13.0005 12.286C12.9285 12.202 12.8985 12.106 12.9105 11.998C12.9225 11.674 13.0785 11.314 13.3785 10.918C13.6905 10.522 14.1585 10.18 14.7825 9.892C15.4185 9.604 16.1985 9.46 17.1225 9.46C18.5985 9.46 19.6905 9.79 20.3985 10.45C21.1065 11.098 21.4605 11.974 21.4605 13.078V18.55C21.4605 18.67 21.4185 18.778 21.3345 18.874C21.2505 18.958 21.1425 19 21.0105 19H18.9225C18.8025 19 18.6945 18.958 18.5985 18.874C18.5145 18.778 18.4725 18.67 18.4725 18.55V17.92C18.2085 18.292 17.8365 18.598 17.3565 18.838C16.8885 19.066 16.3305 19.18 15.6825 19.18ZM16.5285 17.128C17.0805 17.128 17.5245 16.948 17.8605 16.588C18.2085 16.228 18.3825 15.7 18.3825 15.004V14.752L16.8525 15.022C15.7725 15.214 15.2325 15.592 15.2325 16.156C15.2325 16.456 15.3585 16.696 15.6105 16.876C15.8625 17.044 16.1685 17.128 16.5285 17.128ZM23.9417 19C23.8097 19 23.7017 18.958 23.6177 18.874C23.5337 18.79 23.4917 18.682 23.4917 18.55V10.09C23.4917 9.958 23.5337 9.85 23.6177 9.766C23.7017 9.682 23.8097 9.64 23.9417 9.64H25.9037C26.0357 9.64 26.1437 9.682 26.2277 9.766C26.3117 9.85 26.3537 9.958 26.3537 10.09V10.702C26.6297 10.342 26.9957 10.048 27.4517 9.82C27.9197 9.58 28.4417 9.46 29.0177 9.46C30.3377 9.46 31.2497 9.976 31.7537 11.008C32.0417 10.552 32.4437 10.18 32.9597 9.892C33.4757 9.604 34.0277 9.46 34.6157 9.46C35.5997 9.46 36.3977 9.796 37.0097 10.468C37.6337 11.128 37.9457 12.118 37.9457 13.438V18.55C37.9457 18.67 37.9037 18.778 37.8197 18.874C37.7357 18.958 37.6277 19 37.4957 19H35.4077C35.2757 19 35.1617 18.958 35.0657 18.874C34.9817 18.79 34.9397 18.682 34.9397 18.55V13.564C34.9397 12.964 34.8137 12.532 34.5617 12.268C34.3217 12.004 33.9917 11.872 33.5717 11.872C33.1877 11.872 32.8697 12.01 32.6177 12.286C32.3657 12.55 32.2397 12.976 32.2397 13.564V18.55C32.2397 18.67 32.1977 18.778 32.1137 18.874C32.0297 18.958 31.9217 19 31.7897 19H29.7017C29.5697 19 29.4617 18.958 29.3777 18.874C29.2937 18.79 29.2517 18.682 29.2517 18.55V13.564C29.2517 12.976 29.1197 12.55 28.8557 12.286C28.6037 12.01 28.2797 11.872 27.8837 11.872C27.4997 11.872 27.1757 12.01 26.9117 12.286C26.6597 12.55 26.5337 12.97 26.5337 13.546V18.55C26.5337 18.67 26.4917 18.778 26.4077 18.874C26.3237 18.958 26.2157 19 26.0837 19H23.9417ZM40.43 22.42C40.31 22.42 40.202 22.378 40.106 22.294C40.022 22.21 39.98 22.102 39.98 21.97V10.09C39.98 9.958 40.022 9.85 40.106 9.766C40.202 9.682 40.31 9.64 40.43 9.64H42.464C42.596 9.64 42.704 9.682 42.788 9.766C42.872 9.85 42.914 9.958 42.914 10.09V10.738C43.562 9.886 44.492 9.46 45.704 9.46C46.88 9.46 47.798 9.826 48.458 10.558C49.118 11.29 49.478 12.322 49.538 13.654C49.55 13.81 49.556 14.032 49.556 14.32C49.556 14.608 49.55 14.83 49.538 14.986C49.49 16.282 49.13 17.308 48.458 18.064C47.786 18.808 46.868 19.18 45.704 19.18C44.528 19.18 43.652 18.778 43.076 17.974V21.97C43.076 22.102 43.034 22.21 42.95 22.294C42.866 22.378 42.758 22.42 42.626 22.42H40.43ZM44.732 16.768C45.296 16.768 45.698 16.6 45.938 16.264C46.19 15.928 46.334 15.466 46.37 14.878C46.394 14.638 46.406 14.452 46.406 14.32C46.406 14.188 46.394 14.002 46.37 13.762C46.334 13.174 46.19 12.712 45.938 12.376C45.698 12.04 45.296 11.872 44.732 11.872C44.18 11.872 43.772 12.046 43.508 12.394C43.256 12.73 43.112 13.168 43.076 13.708L43.058 14.374L43.076 15.058C43.1 15.55 43.25 15.958 43.526 16.282C43.802 16.606 44.204 16.768 44.732 16.768ZM54.7734 19.18C53.7174 19.18 52.8654 18.826 52.2174 18.118C51.5694 17.398 51.2454 16.396 51.2454 15.112V10.09C51.2454 9.958 51.2874 9.85 51.3714 9.766C51.4554 9.682 51.5634 9.64 51.6954 9.64H53.9454C54.0774 9.64 54.1854 9.682 54.2694 9.766C54.3654 9.85 54.4134 9.958 54.4134 10.09V15.004C54.4134 16.18 54.9354 16.768 55.9794 16.768C56.4834 16.768 56.8794 16.612 57.1674 16.3C57.4554 15.988 57.5994 15.556 57.5994 15.004V10.09C57.5994 9.958 57.6414 9.85 57.7254 9.766C57.8214 9.682 57.9294 9.64 58.0494 9.64H60.2994C60.4314 9.64 60.5394 9.682 60.6234 9.766C60.7074 9.85 60.7494 9.958 60.7494 10.09V18.55C60.7494 18.67 60.7074 18.778 60.6234 18.874C60.5394 18.958 60.4314 19 60.2994 19H58.2114C58.0914 19 57.9834 18.958 57.8874 18.874C57.8034 18.778 57.7614 18.67 57.7614 18.55V17.866C57.1374 18.742 56.1414 19.18 54.7734 19.18ZM63.3167 19C63.1847 19 63.0767 18.958 62.9927 18.874C62.9087 18.79 62.8667 18.682 62.8667 18.55V10.09C62.8667 9.958 62.9087 9.85 62.9927 9.766C63.0767 9.682 63.1847 9.64 63.3167 9.64H65.3867C65.5187 9.64 65.6267 9.682 65.7107 9.766C65.8067 9.85 65.8547 9.958 65.8547 10.09V10.774C66.1787 10.378 66.5927 10.06 67.0967 9.82C67.6127 9.58 68.1947 9.46 68.8427 9.46C69.8987 9.46 70.7567 9.82 71.4167 10.54C72.0767 11.248 72.4067 12.244 72.4067 13.528V18.55C72.4067 18.67 72.3647 18.778 72.2807 18.874C72.1967 18.958 72.0887 19 71.9567 19H69.6887C69.5687 19 69.4607 18.958 69.3647 18.874C69.2807 18.778 69.2387 18.67 69.2387 18.55V13.636C69.2387 13.072 69.1007 12.64 68.8247 12.34C68.5487 12.028 68.1527 11.872 67.6367 11.872C67.1327 11.872 66.7367 12.028 66.4487 12.34C66.1607 12.64 66.0167 13.072 66.0167 13.636V18.55C66.0167 18.67 65.9747 18.778 65.8907 18.874C65.8067 18.958 65.6987 19 65.5667 19H63.3167ZM79.0231 22.96C77.8831 22.96 76.9591 22.774 76.2511 22.402C75.5431 22.03 75.0331 21.604 74.7211 21.124C74.4211 20.644 74.2711 20.242 74.2711 19.918C74.2711 19.81 74.3191 19.714 74.4151 19.63C74.5111 19.546 74.6191 19.504 74.7391 19.504H77.0251C77.1451 19.504 77.2351 19.528 77.2951 19.576C77.3671 19.636 77.4331 19.732 77.4931 19.864C77.6131 20.14 77.7751 20.356 77.9791 20.512C78.1831 20.68 78.5011 20.764 78.9331 20.764C79.4851 20.764 79.8931 20.626 80.1571 20.35C80.4211 20.086 80.5531 19.636 80.5531 19V17.794C79.9411 18.466 79.0651 18.802 77.9251 18.802C76.7131 18.802 75.7831 18.448 75.1351 17.74C74.4991 17.02 74.1511 15.982 74.0911 14.626L74.0731 14.14C74.0731 12.688 74.3971 11.548 75.0451 10.72C75.6931 9.88 76.6531 9.46 77.9251 9.46C78.5371 9.46 79.0771 9.58 79.5451 9.82C80.0131 10.048 80.4091 10.36 80.7331 10.756V10.09C80.7331 9.958 80.7751 9.85 80.8591 9.766C80.9551 9.682 81.0631 9.64 81.1831 9.64H83.2531C83.3851 9.64 83.4931 9.688 83.5771 9.784C83.6731 9.868 83.7211 9.97 83.7211 10.09V18.748C83.7211 20.116 83.3131 21.16 82.4971 21.88C81.6811 22.6 80.5231 22.96 79.0231 22.96ZM78.8971 16.462C79.4371 16.462 79.8391 16.3 80.1031 15.976C80.3671 15.64 80.5171 15.22 80.5531 14.716C80.5651 14.632 80.5711 14.446 80.5711 14.158C80.5711 13.882 80.5651 13.702 80.5531 13.618C80.5291 13.114 80.3791 12.7 80.1031 12.376C79.8391 12.04 79.4371 11.872 78.8971 11.872C78.3331 11.872 77.9251 12.04 77.6731 12.376C77.4211 12.712 77.2831 13.174 77.2591 13.762L77.2411 14.158C77.2411 14.866 77.3611 15.43 77.6011 15.85C77.8411 16.258 78.2731 16.462 78.8971 16.462Z" fill="black"/>
<path d="M90.3213 19C90.2013 19 90.0933 18.958 89.9973 18.874C89.9133 18.778 89.8713 18.67 89.8713 18.55V6.85C89.8713 6.718 89.9133 6.61 89.9973 6.526C90.0933 6.442 90.2013 6.4 90.3213 6.4H95.2173C96.7893 6.4 98.0133 6.76 98.8893 7.48C99.7773 8.188 100.221 9.196 100.221 10.504C100.221 11.344 100.023 12.058 99.6273 12.646C99.2313 13.234 98.6853 13.684 97.9893 13.996L100.455 18.424C100.491 18.496 100.509 18.562 100.509 18.622C100.509 18.718 100.467 18.808 100.383 18.892C100.311 18.964 100.227 19 100.131 19H97.7373C97.3893 19 97.1433 18.838 96.9993 18.514L94.9473 14.554H93.1113V18.55C93.1113 18.682 93.0633 18.79 92.9673 18.874C92.8833 18.958 92.7753 19 92.6433 19H90.3213ZM95.1813 11.998C95.7333 11.998 96.1533 11.866 96.4413 11.602C96.7293 11.326 96.8733 10.948 96.8733 10.468C96.8733 9.988 96.7293 9.61 96.4413 9.334C96.1653 9.046 95.7453 8.902 95.1813 8.902H93.1113V11.998H95.1813ZM106.424 19.18C104.936 19.18 103.79 18.826 102.986 18.118C102.182 17.41 101.744 16.414 101.672 15.13C101.66 14.974 101.654 14.704 101.654 14.32C101.654 13.936 101.66 13.666 101.672 13.51C101.744 12.238 102.194 11.248 103.022 10.54C103.85 9.82 104.984 9.46 106.424 9.46C107.876 9.46 109.016 9.82 109.844 10.54C110.672 11.248 111.122 12.238 111.194 13.51C111.206 13.666 111.212 13.936 111.212 14.32C111.212 14.704 111.206 14.974 111.194 15.13C111.122 16.414 110.684 17.41 109.88 18.118C109.076 18.826 107.924 19.18 106.424 19.18ZM106.424 16.984C106.952 16.984 107.342 16.828 107.594 16.516C107.846 16.192 107.99 15.7 108.026 15.04C108.038 14.92 108.044 14.68 108.044 14.32C108.044 13.96 108.038 13.72 108.026 13.6C107.99 12.952 107.84 12.466 107.576 12.142C107.324 11.818 106.94 11.656 106.424 11.656C105.428 11.656 104.9 12.304 104.84 13.6L104.822 14.32L104.84 15.04C104.864 15.7 105.002 16.192 105.254 16.516C105.518 16.828 105.908 16.984 106.424 16.984ZM117.752 19C115.268 19 114.026 17.818 114.026 15.454V11.998H112.622C112.49 11.998 112.376 11.956 112.28 11.872C112.196 11.788 112.154 11.68 112.154 11.548V10.09C112.154 9.958 112.196 9.85 112.28 9.766C112.376 9.682 112.49 9.64 112.622 9.64H114.026V6.67C114.026 6.538 114.068 6.43 114.152 6.346C114.248 6.262 114.356 6.22 114.476 6.22H116.564C116.696 6.22 116.804 6.262 116.888 6.346C116.972 6.43 117.014 6.538 117.014 6.67V9.64H119.264C119.396 9.64 119.504 9.682 119.588 9.766C119.684 9.85 119.732 9.958 119.732 10.09V11.548C119.732 11.68 119.684 11.788 119.588 11.872C119.504 11.956 119.396 11.998 119.264 11.998H117.014V15.202C117.014 16.09 117.356 16.534 118.04 16.534H119.426C119.558 16.534 119.666 16.576 119.75 16.66C119.834 16.744 119.876 16.852 119.876 16.984V18.55C119.876 18.67 119.834 18.778 119.75 18.874C119.666 18.958 119.558 19 119.426 19H117.752ZM124.175 19.18C123.539 19.18 122.957 19.06 122.429 18.82C121.913 18.568 121.505 18.232 121.205 17.812C120.917 17.38 120.773 16.906 120.773 16.39C120.773 15.562 121.109 14.896 121.781 14.392C122.465 13.888 123.401 13.54 124.589 13.348L126.839 13.006V12.754C126.839 12.298 126.743 11.962 126.551 11.746C126.359 11.53 126.035 11.422 125.579 11.422C125.303 11.422 125.075 11.47 124.895 11.566C124.715 11.662 124.529 11.794 124.337 11.962C124.169 12.106 124.043 12.202 123.959 12.25C123.923 12.346 123.857 12.394 123.761 12.394H121.799C121.679 12.394 121.577 12.358 121.493 12.286C121.421 12.202 121.391 12.106 121.403 11.998C121.415 11.674 121.571 11.314 121.871 10.918C122.183 10.522 122.651 10.18 123.275 9.892C123.911 9.604 124.691 9.46 125.615 9.46C127.091 9.46 128.183 9.79 128.891 10.45C129.599 11.098 129.953 11.974 129.953 13.078V18.55C129.953 18.67 129.911 18.778 129.827 18.874C129.743 18.958 129.635 19 129.503 19H127.415C127.295 19 127.187 18.958 127.091 18.874C127.007 18.778 126.965 18.67 126.965 18.55V17.92C126.701 18.292 126.329 18.598 125.849 18.838C125.381 19.066 124.823 19.18 124.175 19.18ZM125.021 17.128C125.573 17.128 126.017 16.948 126.353 16.588C126.701 16.228 126.875 15.7 126.875 15.004V14.752L125.345 15.022C124.265 15.214 123.725 15.592 123.725 16.156C123.725 16.456 123.851 16.696 124.103 16.876C124.355 17.044 124.661 17.128 125.021 17.128ZM132.434 19C132.302 19 132.194 18.958 132.11 18.874C132.026 18.79 131.984 18.682 131.984 18.55V10.09C131.984 9.958 132.026 9.85 132.11 9.766C132.194 9.682 132.302 9.64 132.434 9.64H134.504C134.636 9.64 134.744 9.682 134.828 9.766C134.924 9.85 134.972 9.958 134.972 10.09V10.774C135.296 10.378 135.71 10.06 136.214 9.82C136.73 9.58 137.312 9.46 137.96 9.46C139.016 9.46 139.874 9.82 140.534 10.54C141.194 11.248 141.524 12.244 141.524 13.528V18.55C141.524 18.67 141.482 18.778 141.398 18.874C141.314 18.958 141.206 19 141.074 19H138.806C138.686 19 138.578 18.958 138.482 18.874C138.398 18.778 138.356 18.67 138.356 18.55V13.636C138.356 13.072 138.218 12.64 137.942 12.34C137.666 12.028 137.27 11.872 136.754 11.872C136.25 11.872 135.854 12.028 135.566 12.34C135.278 12.64 135.134 13.072 135.134 13.636V18.55C135.134 18.67 135.092 18.778 135.008 18.874C134.924 18.958 134.816 19 134.684 19H132.434Z" fill="#EC5863"/>
</svg>
